<svg width="24" height="24" viewBox="0 0 24 24" xmlns="http://www.w3.org/2000/svg">
<g clip-path="url(#clip0_51_10)">
<path d="M24 12.3001C24 14.9809 23.2368 17.3917 21.7104 19.5325C20.184 21.6733 18.2128 23.1545 15.7968 23.9761C15.5152 24.0305 15.3096 23.9933 15.18 23.8645C15.1161 23.8022 15.0658 23.7275 15.0321 23.6449C14.9985 23.5623 14.9822 23.4736 14.9844 23.3845V20.0041C14.9844 18.9681 14.7136 18.2101 14.172 17.7301C14.7125 17.6745 15.248 17.5782 15.774 17.4421C16.2468 17.3141 16.736 17.1061 17.2416 16.8181C17.7266 16.5453 18.1561 16.1838 18.5076 15.7525C18.846 15.3301 19.122 14.7693 19.3356 14.0701C19.5492 13.3709 19.656 12.5677 19.656 11.6605C19.656 10.3677 19.2448 9.26765 18.4224 8.36045C18.8064 7.38925 18.7644 6.30005 18.2964 5.09285C18.0052 4.99685 17.5836 5.05565 17.0316 5.26925C16.5311 5.45775 16.0497 5.69362 15.594 5.97365L15 6.35765C14.0245 6.07903 13.0145 5.93926 12 5.94245C10.9854 5.93965 9.97548 6.07983 9 6.35885C8.7828 6.2088 8.56152 6.06474 8.3364 5.92685C8.0604 5.75565 7.6252 5.55005 7.0308 5.31005C6.438 5.07005 5.99 4.99805 5.6868 5.09405C5.2292 6.29965 5.1932 7.38845 5.5788 8.36045C4.7548 9.26765 4.3428 10.3677 4.3428 11.6605C4.3428 12.5677 4.45 13.3685 4.6644 14.0629C4.878 14.7565 5.1512 15.3169 5.484 15.7441C5.828 16.1814 6.25547 16.5461 6.7416 16.8169C7.2472 17.1049 7.7368 17.3129 8.2104 17.4409C8.6848 17.5705 9.2188 17.6669 9.8124 17.7301C9.3964 18.1141 9.1412 18.6641 9.0468 19.3801C8.82325 19.4889 8.58704 19.5695 8.3436 19.6201C8.05038 19.6776 7.75198 19.7045 7.4532 19.7005C7.1092 19.7005 6.768 19.5857 6.4296 19.3561C6.0912 19.1257 5.802 18.7921 5.562 18.3553C5.37562 18.0241 5.11676 17.7394 4.8048 17.5225C4.4976 17.3089 4.2396 17.1809 4.0308 17.1385L3.7188 17.0905C3.5004 17.0905 3.3492 17.1145 3.2652 17.1625C3.1812 17.2105 3.1552 17.2717 3.1872 17.3461C3.22185 17.4278 3.26923 17.5035 3.3276 17.5705C3.38787 17.6422 3.45634 17.7066 3.5316 17.7625L3.6396 17.8417C3.8692 17.9497 4.096 18.1529 4.32 18.4513C4.544 18.7505 4.708 19.0225 4.812 19.2673L4.968 19.6357C5.104 20.0413 5.3336 20.3697 5.6568 20.6209C5.98 20.8729 6.3288 21.0329 6.7032 21.1009C7.0776 21.1705 7.4396 21.2081 7.7892 21.2137C8.138 21.2185 8.4272 21.1997 8.6568 21.1573L9.0156 21.0937C9.0156 21.4993 9.0184 21.9745 9.024 22.5193L9.0312 23.3833C9.0312 23.5753 8.9632 23.7353 8.8272 23.8633C8.6928 23.9929 8.4848 24.0305 8.2032 23.9761C5.7864 23.1537 3.8152 21.6725 2.2896 19.5325C0.7632 17.3909 0 14.9801 0 12.3001C0 10.0681 0.5364 8.01005 1.6092 6.12605C2.64855 4.27762 4.1547 2.73423 5.9772 1.65005C7.7946 0.556028 9.87878 -0.0149525 12 5.26162e-05C14.1216 -0.0151738 16.2063 0.555814 18.024 1.65005C19.8461 2.7344 21.3518 4.27777 22.3908 6.12605C23.4636 8.01085 24 10.0689 24 12.3001Z" fill="black"/>
</g>
<defs>
<clipPath id="clip0_51_10">
<rect width="24" height="24" fill="white"/>
</clipPath>
</defs>
</svg>
